<svg xmlns="http://www.w3.org/2000/svg" width="80" height="80" fill="none" viewBox="0 0 80 80"><g clip-path="url(#a)"><path fill="var(--tutor-visual-exception-2, #f4f433)" d="M45.696 40.596c.56 0 1.013.454 1.014 1.013 0 1.12-.908 2.028-2.028 2.028h-5.57a2.027 2.027 0 0 1-2.027-2.028c0-.56.454-1.013 1.014-1.013H36.78a2.507 2.507 0 0 1-2.507-2.507c0-.692.561-1.254 1.253-1.254h-1.2a2.117 2.117 0 1 1 0-4.233 2.117 2.117 0 1 1 0-4.234h1.42a1.253 1.253 0 0 1-1.253-1.253A2.507 2.507 0 0 1 37 24.608H38.1c-.56 0-1.014-.454-1.014-1.014 0-1.12.908-2.027 2.027-2.027h5.57c1.12 0 2.027.907 2.027 2.027 0 .56-.453 1.014-1.013 1.014h1.315a2.507 2.507 0 0 1 2.507 2.507c0 .692-.561 1.253-1.254 1.253h1.201a2.117 2.117 0 1 1 0 4.234 2.117 2.117 0 1 1 0 4.233h-1.42c.691 0 1.253.562 1.253 1.254a2.507 2.507 0 0 1-2.507 2.507z"/><path fill="var(--tutor-visual-orange-1, #ff8904)" d="M44.682 21.026c1.37-.026 2.589 1.21 2.55 2.568.003.177-.032.349-.092.51 1.552.05 2.901 1.465 2.854 3.01.005.293-.076.574-.217.822 1.236.151 2.268 1.3 2.229 2.549.014.87-.49 1.675-1.205 2.129.696.461 1.171 1.26 1.144 2.104.02 1.323-1.177 2.49-2.48 2.447l-.177-.002c.198.266.316.59.305.926a3 3 0 0 1-.062.56c-.251 1.266-1.469 2.233-2.74 2.197l-.07-.001c.17.214.279.48.28.765.056 1.132-.853 2.238-2.024 2.39a2 2 0 0 1-.295.025 643 643 0 0 1-5.57.13c-1.355.054-2.614-1.16-2.598-2.545-.004-.14.014-.28.05-.412-1.572-.076-2.956-1.51-2.923-3.11a1.7 1.7 0 0 1 .123-.672c-1.224-.258-2.22-1.423-2.188-2.698-.02-.825.391-1.603 1.015-2.12-.62-.516-1.027-1.292-1.006-2.113-.03-1.352 1.095-2.573 2.417-2.72a1.7 1.7 0 0 1-.117-.65c-.032-1.512 1.206-2.879 2.674-3.079a1.4 1.4 0 0 1-.058-.442c-.029-1.392 1.227-2.636 2.611-2.598zm-5.57.54c-1.12 0-2.027.909-2.027 2.028 0 .56.454 1.014 1.013 1.014H37a2.507 2.507 0 0 0-2.507 2.507c0 .692.562 1.253 1.254 1.254h-1.42a2.117 2.117 0 1 0 0 4.233 2.117 2.117 0 1 0 0 4.233h1.2c-.693 0-1.254.562-1.254 1.254a2.507 2.507 0 0 0 2.507 2.507h1.318c-.56 0-1.013.454-1.013 1.014 0 1.12.907 2.027 2.027 2.027h5.57c1.12 0 2.026-.908 2.027-2.027 0-.56-.453-1.014-1.013-1.014h1.095a2.507 2.507 0 0 0 2.507-2.507c0-.692-.562-1.254-1.254-1.254h1.42a2.118 2.118 0 0 0 0-4.233 2.118 2.118 0 0 0 0-4.233h-1.2c.693 0 1.254-.562 1.254-1.254a2.51 2.51 0 0 0-2.508-2.507h-1.314c.56 0 1.013-.454 1.013-1.014 0-1.12-.907-2.027-2.027-2.027z"/><path fill="var(--tutor-visual-orange-1, #ff8904)" d="m37.562 40.6 7.234.023h.402l-.402.015-7.23.263-.4.016-.005-.319zm-2.45-3.75 10.923.11.606.005-.606.01-10.922.175-.607.01v-.319zm-1.058-4.397 13.683.142.76.008-.76.008-13.683.143-.76.008v-.318zm1.378-4.367 10.923.11.606.007-.606.01-10.922.173-.606.011-.001-.318zm2.164-3.79 7.236.023.4.002-.4.014-7.23.262-.401.016-.006-.318z"/><path fill="#713b12" d="M47.26 32.606c0 2.047-1.188 3.706-2.654 3.706s-2.653-1.66-2.653-3.706S43.14 28.9 44.606 28.9s2.654 1.66 2.654 3.706"/><path fill="var(--tutor-visual-caution-2, #a15c07)" fill-rule="evenodd" d="M41.958 32.843a5 5 0 0 1-.005-.237c0-2.047 1.188-3.706 2.653-3.706s2.654 1.66 2.654 3.706-1.188 3.706-2.654 3.706a2 2 0 0 1-.165-.007c1.209-.116 2.164-1.523 2.164-3.24 0-1.794-1.042-3.248-2.326-3.248-1.232 0-2.24 1.335-2.32 3.026" clip-rule="evenodd"/><path fill="var(--tutor-visual-exception-2, #f4f433)" d="M32.075 67.124a2.267 2.267 0 0 1 2.267 2.267 4.534 4.534 0 0 1-4.534 4.535H17.35a4.534 4.534 0 0 1-4.534-4.535 2.267 2.267 0 0 1 2.267-2.267h-2.95a5.607 5.607 0 0 1-5.606-5.606 2.803 2.803 0 0 1 2.803-2.804H6.648a4.734 4.734 0 0 1 0-9.468 4.734 4.734 0 0 1 0-9.469h3.176a2.803 2.803 0 0 1-2.804-2.803 5.607 5.607 0 0 1 5.607-5.607h2.457a2.267 2.267 0 0 1-2.267-2.267 4.534 4.534 0 0 1 4.534-4.534h12.457a4.534 4.534 0 0 1 4.534 4.534 2.267 2.267 0 0 1-2.267 2.267h2.941a5.607 5.607 0 0 1 5.607 5.607 2.804 2.804 0 0 1-2.803 2.803h2.685a4.734 4.734 0 0 1 0 9.469 4.734 4.734 0 0 1 0 9.468h-3.178a2.804 2.804 0 0 1 2.803 2.803 5.607 5.607 0 0 1-5.606 5.607z"/><path fill="var(--tutor-visual-orange-1, #ff8904)" d="M17.351 23.29q6.23.03 12.457.065c3.063-.058 5.79 2.708 5.702 5.745.008.396-.063.782-.198 1.144 3.467.112 6.48 3.275 6.375 6.73a3.6 3.6 0 0 1-.48 1.833c2.763.34 5.068 2.912 4.98 5.704.032 1.946-1.089 3.747-2.686 4.763 1.553 1.033 2.613 2.82 2.551 4.706.045 2.958-2.633 5.571-5.547 5.474l-.39-.005c.441.594.7 1.319.675 2.068a6.3 6.3 0 0 1-.138 1.253c-.562 2.832-3.285 4.996-6.128 4.915l-.155-.002c.383.478.624 1.072.626 1.708.126 2.532-1.908 5.008-4.527 5.347q-.327.048-.66.055-6.228.172-12.457.291c-3.03.122-5.848-2.593-5.81-5.693q-.013-.471.107-.92c-3.513-.17-6.607-3.376-6.531-6.954a3.8 3.8 0 0 1 .271-1.503C2.651 59.434.428 56.83.497 53.98c-.043-1.845.874-3.586 2.267-4.74C1.378 48.084.47 46.348.516 44.51.45 41.49 2.963 38.758 5.918 38.43a3.8 3.8 0 0 1-.258-1.455c-.072-3.38 2.697-6.437 5.982-6.884a3.2 3.2 0 0 1-.133-.99c-.063-3.113 2.747-5.895 5.842-5.81m0 1.276a4.534 4.534 0 0 0-4.534 4.534 2.267 2.267 0 0 0 2.267 2.267h-2.456a5.61 5.61 0 0 0-5.608 5.607 2.803 2.803 0 0 0 2.804 2.803H6.648a4.735 4.735 0 0 0 0 9.469 4.735 4.735 0 0 0 0 9.468h2.683a2.803 2.803 0 0 0-2.803 2.803 5.607 5.607 0 0 0 5.606 5.607h2.95a2.267 2.267 0 0 0-2.267 2.267 4.534 4.534 0 0 0 4.534 4.534h12.457a4.534 4.534 0 0 0 4.534-4.534 2.267 2.267 0 0 0-2.267-2.267h2.449a5.607 5.607 0 0 0 5.606-5.607 2.804 2.804 0 0 0-2.803-2.803h3.178a4.734 4.734 0 0 0 0-9.468 4.734 4.734 0 0 0 0-9.47H37.82a2.803 2.803 0 0 0 2.804-2.802 5.61 5.61 0 0 0-5.608-5.607h-2.941a2.267 2.267 0 0 0 2.267-2.267 4.535 4.535 0 0 0-4.534-4.534z"/><path fill="var(--tutor-visual-orange-1, #ff8904)" fill-rule="evenodd" d="m13.885 67.133 16.179.052q.45 0 .898.003l-.898.032-16.168.587q-.449.016-.898.033l-.012-.71zm-5.48-8.388 24.429.248 1.357.013-1.358.022-24.426.39-1.358.023-.002-.711zM6.04 48.913l30.6.319 1.7.017-1.7.018-30.6.32-1.702.018.001-.711zm3.08-9.767 24.43.248 1.357.014-1.358.021-24.426.39-1.358.023-.002-.71zm4.841-8.476 16.18.052.898.003-.898.032-16.168.587-.898.034-.012-.71z" clip-rule="evenodd"/><path fill="#713b12" d="M35.574 49.256c0 4.577-2.657 8.288-5.935 8.288s-5.935-3.71-5.935-8.288 2.657-8.29 5.935-8.29 5.935 3.712 5.935 8.29"/><path fill="var(--tutor-visual-caution-2, #a15c07)" fill-rule="evenodd" d="M23.716 49.785a12 12 0 0 1-.012-.53c0-4.577 2.657-8.288 5.935-8.288s5.935 3.71 5.935 8.289c0 4.577-2.657 8.288-5.935 8.288q-.186 0-.37-.015c2.704-.261 4.839-3.406 4.839-7.248 0-4.012-2.33-7.264-5.202-7.264-2.754 0-5.008 2.988-5.19 6.768" clip-rule="evenodd"/><path stroke="var(--tutor-visual-gray-4, #2d3039)" stroke-dasharray="1.09 1.09" stroke-linecap="round" stroke-width=".273" d="M59.71 55.389c-25.827-.165-8.164 2.637-16.154 5.655-4.873 1.84-27.17 3.935-16.732-5.82" opacity=".2"/><path fill="var(--tutor-visual-gray-1, #ffffff)" d="M72.46 46.112c0 2.58-1.16 4.67-2.59 4.67s-2.59-2.09-2.59-4.67 1.16-4.67 2.59-4.67 2.59 2.09 2.59 4.67"/><path fill="var(--tutor-visual-gray-4, #2d3039)" d="M71.985 46.112c0-1.225-.277-2.31-.7-3.072-.431-.779-.951-1.123-1.415-1.123s-.985.344-1.416 1.123c-.423.762-.7 1.847-.7 3.072 0 1.224.277 2.31.7 3.072.431.778.952 1.123 1.416 1.123v.475c-1.43 0-2.59-2.091-2.59-4.67 0-2.58 1.16-4.67 2.59-4.67s2.59 2.09 2.59 4.67-1.16 4.67-2.59 4.67v-.475c.464 0 .984-.345 1.416-1.123.422-.762.699-1.847.699-3.072"/><path fill="var(--tutor-visual-exception-2, #f4f433)" stroke="var(--tutor-visual-gray-4, #2d3039)" stroke-width=".475" d="M71.018 49.683c-1.905 0-3.62.583-4.855 1.514-1.234.932-1.975 2.2-1.975 3.582 0 1.383.741 2.652 1.975 3.583 1.234.932 2.95 1.515 4.855 1.515 2.014 0 3.973-.252 5.191-1.218 1.13-.896 1.64-2.498 1.64-3.88 0-1.235-.253-2.706-1.127-3.543-.606-.58-1.467-.97-2.468-1.214s-2.123-.34-3.236-.34Z"/><path fill="var(--tutor-visual-gray-4, #2d3039)" d="M69.402 49.427q.732.016 1.417.164c.346.075.987.02 1.306.142-2.178 2.745-2.1 7.182.306 9.837-.694.304-1.767.197-2.584.26a8.28 8.28 0 0 1-.445-10.403m-1.72.734c-1.277 1.609-3.61 5.7 0 9.045-.407.177-1.283-.82-2.152-1.252a4.8 4.8 0 0 1-1.073-2.05l-4.523-.52-.3-.035.301-.024 4.387-.36a4.84 4.84 0 0 1 .947-3.108c.285.005 1.331-1.333 1.599-1.276.203.043.627-.49.814-.42m8.646 4.134a.26.26 0 0 1 .273.25c.067 1.45-.988 2.707-2.39 2.772s-2.57-1.09-2.636-2.541a.262.262 0 0 1 .523-.024c.055 1.193 1.004 2.09 2.088 2.04s1.946-1.03 1.892-2.223a.26.26 0 0 1 .25-.274m-1.31-2.061q.05.001.088.035a.2.2 0 0 1 .053.085l.029.097q.201.675.197 1.348a.63.63 0 0 1-.151.384 1 1 0 0 1-.085.096q-.034.036-.07.062a.13.13 0 0 1-.07.026.13.13 0 0 1-.072-.026 1.166 1.166 0 0 1-.152-.16.63.63 0 0 1-.149-.386q.003-.674.21-1.346l.031-.096a.2.2 0 0 1 .053-.084.13.13 0 0 1 .088-.035m-1.735-.003a.13.13 0 0 1 .087.038q.036.036.05.086l.026.098q.18.68.158 1.354a.63.63 0 0 1-.162.38 1 1 0 0 1-.089.092c-.024.022-.047.045-.071.06a.13.13 0 0 1-.072.024.13.13 0 0 1-.07-.028 1.19 1.19 0 0 1-.148-.164.63.63 0 0 1-.136-.39 4.6 4.6 0 0 1 .282-1.435.2.2 0 0 1 .056-.083.13.13 0 0 1 .089-.032"/><path fill="var(--tutor-visual-gray-1, #ffffff)" d="M70.047 45.282c1.363 2.19 1.485 4.577.27 5.333-1.213.757-3.303-.405-4.667-2.594s-1.485-4.577-.271-5.333 3.304.405 4.668 2.594"/><path fill="var(--tutor-visual-gray-4, #2d3039)" d="M69.644 45.533c-.648-1.04-1.457-1.815-2.219-2.238-.777-.432-1.401-.45-1.795-.204-.394.245-.653.813-.608 1.702.044.87.383 1.938 1.03 2.977.648 1.04 1.457 1.814 2.219 2.238.778.432 1.402.45 1.796.204l.25.403c-1.214.756-3.303-.405-4.667-2.594s-1.485-4.577-.271-5.333 3.303.405 4.667 2.594 1.485 4.577.271 5.333l-.25-.403c.393-.245.653-.813.608-1.702-.045-.87-.384-1.938-1.031-2.977"/><path fill="#713b12" d="M10.169 24.421c0 2.607-4.876 5.505-6.245 5.505s-2.01-2.49-2.01-5.097 1.859-4.59 3.227-4.59c1.369 0 5.028 1.575 5.028 4.182"/><path fill="var(--tutor-visual-caution-2, #a15c07)" d="M59.585 24.391h-.028l-.002-.001h-.024l-.023-.001a6 6 0 0 1-.405-.015c-.064-.009-.18.027-.312.068-.121.038-.256.08-.377.095.126.096.243.19.344.272.14.114.252.204.31.236l.112.069c.372.23 1.462.903 2.106.945-.607.12-1.437-.287-1.928-.528a6 6 0 0 0-.287-.135c-.224-.091-1.299-.6-1.489-.714-.224-.136-.717-.19-1.279-.251-.662-.073-1.42-.156-1.946-.395-.693-.315-1.2-.726-1.69-1.124-.731-.594-1.426-1.158-2.646-1.326-1.11-.153-1.505-.335-1.784-.463-.181-.083-.312-.143-.558-.158-.994-.058-1.547.001-2.01.05-.303.033-.567.061-.89.05-.886.396-1.893.914-2.962 1.464-2.644 1.36-5.67 2.916-8.205 3.31-3.338.52-6.216.217-9-.076-4.156-.438-8.102-.853-13.053 1.522-4.501 2.16-6.416 2.45-7.761 2.654 5.514-7.375 3.301-8.642 1.846-9.608-2.329-.327 8.55.188 9.257 0 1.673-.656 4.325-1.366 5.083-1.441.384-.038.57-.195.79-.38.402-.34.915-.772 2.963-.729 3.1.065 5.474-1.835 6.213-2.427.099-.078.168-.134.206-.159.225-.145.554-.253.904-.336.46-.324.704-.785.792-.95l.03-.056c.08-.119.285-.246.417-.327a1 1 0 0 0 .145-.101c.115-.094.453-.367.539-.569-.03.208-.253.428-.386.559q-.048.046-.075.076a9 9 0 0 1-.396.397c-.068.056-.14.208-.223.381-.076.159-.16.335-.258.472.215-.037.422-.067.6-.093.249-.036.443-.065.53-.092q.047-.015.175-.05c.584-.163 2.292-.637 2.938-1.252-.447.73-1.64 1.19-2.347 1.463-.169.066-.31.12-.406.165-.304.141-1.83.755-2.124.84-.348.1-.866.55-1.457 1.063-.696.605-1.492 1.297-2.229 1.606-.97.408-1.864.536-2.729.66-1.29.185-2.516.361-3.832 1.442l-.033.027c.676.142 1.415.323 2.227.549 9.572 2.66 18.463-1.465 21.231-2.75l.065-.03c.334-.155.571-.264.702-.309 1.766-.607 4.906-.283 6.924-.076.8.083 1.424.147 1.717.128.103-.007.306-.012.585-.02 1.942-.05 7.624-.197 10.123-1.628-1.971 1.953-6.046 2.464-8.457 2.766-.577.073-1.06.133-1.394.199-.62.12-2.678.423-4.472.659.228.155.406.287.507.377.209.185.384.207.59.233.377.047.858.107 1.84 1.215 1.487 1.676 3.661 2.004 4.338 2.106q.137.02.185.03c.188.05.407.17.623.315.397.086.762-.011.892-.046l.045-.01c.102-.017.27.03.378.06q.066.018.092.022l.033.005c.106.015.417.06.566.007-.125.086-.352.076-.486.07"/></g><defs><clipPath id="a"><path fill="var(--tutor-visual-gray-1, #ffffff)" d="M0 0h80v80H0z"/></clipPath></defs></svg>